<?xml version="1.0" encoding="UTF-8"?>
<!DOCTYPE svg PUBLIC "-//W3C//DTD SVG 1.1//EN"
    "http://www.w3.org/Graphics/SVG/1.1/DTD/svg11.dtd" >
<svg contentScriptType="text/ecmascript" width="595px"
     xmlns:xlink="http://www.w3.org/1999/xlink" zoomAndPan="magnify"
     contentStyleType="text/css" viewBox="-97 -120 216 240" height="661px"
     preserveAspectRatio="xMidYMid meet" xmlns="http://www.w3.org/2000/svg"
     version="1.1">
    <g id="edges">
        <path fill="none" stroke-width="2.0"
              d="M 32.360435,86.872795 C 17.251392,89.089584 -8.737352,69.751205 -10.954143,54.642162"
              class="EncodingProfile User" stroke-opacity="1.0" stroke="#6949c8"/>
        <path fill="none" stroke-width="2.0"
              d="M 43.939999,106.942558 C 37.610130,105.244514 30.662397,93.202660 32.360435,86.872795"
              class="EncodingProfilesPlatform EncodingProfile"
              stroke-opacity="1.0" stroke="#a82ac8"/>
        <path fill="none" stroke-width="3.0"
              d="M 52.563885,95.181229 C 46.861507,97.560226 34.739441,92.575172 32.360435,86.872795"
              class="Platform EncodingProfile" stroke-opacity="1.0"
              stroke="#a82ac8"/>
        <path fill="none" stroke-width="3.0"
              d="M 52.563885,95.181229 C 53.191372,99.258270 48.017040,106.315071 43.939999,106.942558"
              class="Platform EncodingProfilesPlatform" stroke-opacity="1.0"
              stroke="#a82ac8"/>
        <path fill="none" stroke-width="2.0"
              d="M 52.596542,65.768005 C 37.661236,76.252975 -0.469174,69.577469 -10.954143,54.642162"
              class="Player User" stroke-opacity="1.0" stroke="#699879"/>
        <path fill="none" stroke-width="2.0"
              d="M 52.596542,65.768005 C 58.472656,71.657181 58.453060,89.305115 52.563885,95.181229"
              class="Player Platform" stroke-opacity="1.0" stroke="#a87979"/>
        <path fill="none" stroke-width="2.0"
              d="M 78.478981,29.807425 C 65.559303,52.660995 11.899430,67.561844 -10.954143,54.642162"
              class="Playlist User" stroke-opacity="1.0" stroke="#699879"/>
        <path fill="none" stroke-width="1.0"
              d="M 78.478981,29.807425 C 67.900314,23.903017 60.888924,-0.821600 66.793335,-11.400268"
              class="Playlist PlaylistRecord" stroke-opacity="1.0"
              stroke="#b8792a"/>
        <path fill="none" stroke-width="4.0"
              d="M 78.478981,29.807425 C 83.722015,26.242657 96.933701,28.760052 100.498466,34.003078"
              class="Playlist ImageUploader" stroke-opacity="1.0"
              stroke="#a8c82a"/>
        <path fill="none" stroke-width="3.0"
              d="M 78.478981,29.807425 C 80.494606,42.176029 64.965149,63.752377 52.596542,65.768005"
              class="Playlist Player" stroke-opacity="1.0" stroke="#a8c82a"/>
        <path fill="none" stroke-width="3.0"
              d="M 78.478981,29.807425 C 81.220268,36.357544 75.507027,50.294655 68.956902,53.035942"
              class="Playlist PlayersPlaylists" stroke-opacity="1.0"
              stroke="#a8c82a"/>
        <path fill="none" stroke-width="2.0"
              d="M 100.498466,34.003078 C 95.255432,37.567844 82.043747,35.050453 78.478981,29.807425"
              class="ImageUploader Playlist" stroke-opacity="1.0"
              stroke="#a8c82a"/>
        <path fill="none" stroke-width="1.0"
              d="M 68.956902,53.035942 C 53.295937,69.339394 5.349310,70.303131 -10.954143,54.642162"
              class="PlayersPlaylists User" stroke-opacity="1.0"
              stroke="#699879"/>
        <path fill="none" stroke-width="4.0"
              d="M 68.956902,53.035942 C 66.215614,46.485825 71.928856,32.548714 78.478981,29.807425"
              class="PlayersPlaylists Playlist" stroke-opacity="1.0"
              stroke="#a8c82a"/>
        <path fill="none" stroke-width="3.0"
              d="M 68.956902,53.035942 C 68.231239,58.854427 58.415028,66.493660 52.596542,65.768005"
              class="PlayersPlaylists Player" stroke-opacity="1.0"
              stroke="#a8c82a"/>
        <path fill="none" stroke-width="1.0"
              d="M 82.533844,-32.942310 C 70.643417,-32.533142 52.194023,-49.755039 51.784855,-61.645470"
              class="CreateTranscodingsForVideo Video" stroke-opacity="1.0"
              stroke="#c82a2a"/>
        <path fill="none" stroke-width="2.0"
              d="M 80.718811,-67.926323 C 76.188194,-60.883358 58.827820,-57.114849 51.784855,-61.645470"
              class="CreateThumbnail Video" stroke-opacity="1.0"
              stroke="#c82a2a"/>
        <path fill="none" stroke-width="5.0"
              d="M 66.793335,-11.400268 C 53.742599,-18.447611 44.737511,-48.594730 51.784855,-61.645470"
              class="PlaylistRecord Video" stroke-opacity="1.0" stroke="#c82a2a"/>
        <path fill="none" stroke-width="1.0"
              d="M 66.793335,-11.400268 C 64.452324,17.357716 17.803841,56.983173 -10.954143,54.642162"
              class="PlaylistRecord User" stroke-opacity="1.0" stroke="#794979"/>
        <path fill="none" stroke-width="4.0"
              d="M 66.793335,-11.400268 C 77.372002,-5.495859 84.383392,19.228758 78.478981,29.807425"
              class="PlaylistRecord Playlist" stroke-opacity="1.0"
              stroke="#b8792a"/>
        <path fill="none" stroke-width="2.0"
              d="M 66.793335,-11.400268 C 65.633026,-18.856777 75.077332,-31.782003 82.533844,-32.942310"
              class="PlaylistRecord CreateTranscodingsForVideo"
              stroke-opacity="1.0" stroke="#c82a2a"/>
        <path fill="none" stroke-width="3.0"
              d="M 51.784855,-61.645470 C 44.789185,-75.803940 55.533386,-107.535164 69.691856,-114.530838"
              class="Video VideoUploader" stroke-opacity="1.0" stroke="#c82a2a"/>
        <path fill="none" stroke-width="1.0"
              d="M 51.784855,-61.645470 C 40.411980,-72.457748 39.571079,-105.735474 50.383354,-117.108345"
              class="Video FileSizeValidator" stroke-opacity="1.0"
              stroke="#c82a2a"/>
        <path fill="none" stroke-width="4.0"
              d="M 51.784855,-61.645470 C 62.494576,-25.840147 24.851181,43.932438 -10.954143,54.642162"
              class="Video User" stroke-opacity="1.0" stroke="#794979"/>
        <path fill="none" stroke-width="1.0"
              d="M 51.784855,-61.645470 C 57.425591,-6.554832 -16.749243,84.542221 -71.839882,90.182953"
              class="Video Plan" stroke-opacity="1.0" stroke="#794979"/>
        <path fill="none" stroke-width="3.0"
              d="M 51.784855,-61.645470 C 33.626907,-46.598137 -16.180998,-51.264046 -31.228334,-69.421989"
              class="Video Storage" stroke-opacity="1.0" stroke="#797949"/>
        <path fill="none" stroke-width="2.0"
              d="M 51.784855,-61.645470 C 50.430428,-73.986626 66.910515,-94.529991 79.251671,-95.884422"
              class="Video VideoDestination" stroke-opacity="1.0"
              stroke="#c82a2a"/>
        <path fill="none" stroke-width="4.0"
              d="M 51.784855,-61.645470 C 53.619926,-76.934181 79.305603,-97.114639 94.594315,-95.279572"
              class="Video ThumbnailUploader" stroke-opacity="1.0"
              stroke="#c82a2a"/>
        <path fill="none" stroke-width="2.0"
              d="M 51.784855,-61.645470 C 61.004204,-78.742340 100.478539,-90.558609 117.575409,-81.339256"
              class="Video SubtitleUploader" stroke-opacity="1.0"
              stroke="#c82a2a"/>
        <path fill="none" stroke-width="1.0"
              d="M 51.784855,-61.645470 C 40.560101,-37.924095 -11.859089,-19.179165 -35.580463,-30.403919"
              class="Video Transcoding" stroke-opacity="1.0" stroke="#797949"/>
        <path fill="none" stroke-width="1.0"
              d="M 69.691856,-114.530838 C 76.687531,-100.372368 65.943329,-68.641144 51.784855,-61.645470"
              class="VideoUploader Video" stroke-opacity="1.0" stroke="#c82a2a"/>
        <path fill="none" stroke-width="3.0"
              d="M 69.691856,-114.530838 C 75.333107,-112.713516 81.068993,-101.525673 79.251671,-95.884422"
              class="VideoUploader VideoDestination" stroke-opacity="1.0"
              stroke="#c82a2a"/>
        <path fill="none" stroke-width="1.0"
              d="M 50.383354,-117.108345 C 61.756229,-106.296066 62.597130,-73.018341 51.784855,-61.645470"
              class="FileSizeValidator Video" stroke-opacity="1.0"
              stroke="#c82a2a"/>
        <path fill="none" stroke-width="2.0"
              d="M 50.383354,-117.108345 C 54.760559,-120.454544 66.345657,-118.908043 69.691856,-114.530838"
              class="FileSizeValidator VideoUploader" stroke-opacity="1.0"
              stroke="#c82a2a"/>
        <path fill="none" stroke-width="3.0"
              d="M 79.251671,-95.884422 C 80.606102,-83.543266 64.126007,-62.999901 51.784855,-61.645470"
              class="VideoDestination Video" stroke-opacity="1.0"
              stroke="#c82a2a"/>
        <path fill="none" stroke-width="3.0"
              d="M 94.594315,-95.279572 C 91.404816,-92.332016 82.199226,-92.694923 79.251671,-95.884422"
              class="ThumbnailUploader VideoDestination" stroke-opacity="1.0"
              stroke="#c82a2a"/>
        <path fill="none" stroke-width="1.0"
              d="M 3.940493,-51.280888 C 11.436449,-62.922676 40.143063,-69.141426 51.784855,-61.645470"
              class="PlaylistRecordStatusUpdater Video" stroke-opacity="1.0"
              stroke="#797949"/>
        <path fill="none" stroke-width="1.0"
              d="M 3.940493,-51.280888 C 0.211695,-39.201305 -23.500877,-26.675119 -35.580463,-30.403919"
              class="PlaylistRecordStatusUpdater Transcoding"
              stroke-opacity="1.0" stroke="#2ac869"/>
        <path fill="none" stroke-width="2.0"
              d="M -45.878811,-55.360344 C -45.761044,-61.102768 -36.970757,-69.539749 -31.228334,-69.421989"
              class="StartEncoding Storage" stroke-opacity="1.0"
              stroke="#2ac869"/>
        <path fill="none" stroke-width="3.0"
              d="M -45.878811,-55.360344 C -38.827858,-52.428726 -32.648849,-37.454872 -35.580463,-30.403919"
              class="StartEncoding Transcoding" stroke-opacity="1.0"
              stroke="#2ac869"/>
        <path fill="none" stroke-width="1.0"
              d="M -45.878811,-55.360344 C -53.986675,-48.918442 -75.811325,-51.417385 -82.253235,-59.525249"
              class="StartEncoding Codem::Job" stroke-opacity="1.0"
              stroke="#2ac869"/>
        <path fill="none" stroke-width="3.0"
              d="M -65.064018,-41.533314 C -56.941425,-45.204147 -39.251293,-38.526512 -35.580463,-30.403919"
              class="TrackEncodingProgress Transcoding" stroke-opacity="1.0"
              stroke="#2ac869"/>
        <path fill="none" stroke-width="3.0"
              d="M -65.064018,-41.533314 C -72.100250,-41.693859 -82.413780,-52.489017 -82.253235,-59.525249"
              class="TrackEncodingProgress Codem::Job" stroke-opacity="1.0"
              stroke="#2ac869"/>
        <path fill="none" stroke-width="2.0"
              d="M -96.777618,-64.236893 C -92.930412,-66.199440 -84.215782,-63.372456 -82.253235,-59.525249"
              class="CancelEncoding Codem::Job" stroke-opacity="1.0"
              stroke="#2ac869"/>
        <path fill="none" stroke-width="3.0"
              d="M -71.114189,-88.227699 C -67.102364,-87.118721 -62.748096,-79.437500 -63.857079,-75.425674"
              class="UploadTranscodingFiles UploadTranscodingFiles::Worker"
              stroke-opacity="1.0" stroke="#2ac869"/>
        <path fill="none" stroke-width="3.0"
              d="M -63.857079,-75.425674 C -56.130592,-80.750687 -36.553345,-77.148476 -31.228334,-69.421989"
              class="UploadTranscodingFiles::Worker Storage"
              stroke-opacity="1.0" stroke="#2ac869"/>
        <path fill="none" stroke-width="3.0"
              d="M -63.857079,-75.425674 C -49.197403,-72.076645 -32.231438,-45.063595 -35.580463,-30.403919"
              class="UploadTranscodingFiles::Worker Transcoding"
              stroke-opacity="1.0" stroke="#2ac869"/>
        <path fill="none" stroke-width="2.0"
              d="M -63.857079,-75.425674 C -60.222775,-71.580849 -60.538570,-60.362152 -64.383400,-56.727848"
              class="UploadTranscodingFiles::Worker AwsUtils::Path"
              stroke-opacity="1.0" stroke="#2ac869"/>
        <path fill="none" stroke-width="5.0"
              d="M -63.857079,-75.425674 C -64.356224,-68.566360 -75.393921,-59.026104 -82.253235,-59.525249"
              class="UploadTranscodingFiles::Worker Codem::Job"
              stroke-opacity="1.0" stroke="#2ac869"/>
        <path fill="none" stroke-width="2.0"
              d="M -35.580463,-30.403919 C -24.355709,-54.125294 28.063480,-72.870224 51.784855,-61.645470"
              class="Transcoding Video" stroke-opacity="1.0" stroke="#797949"/>
        <path fill="none" stroke-width="4.0"
              d="M -35.580463,-30.403919 C -13.645983,-18.319967 1.129809,32.707680 -10.954143,54.642162"
              class="Transcoding User" stroke-opacity="1.0" stroke="#2a9898"/>
        <path fill="none" stroke-width="2.0"
              d="M -35.580463,-30.403919 C 1.463060,-20.536757 42.227600,49.829269 32.360435,86.872795"
              class="Transcoding EncodingProfile" stroke-opacity="1.0"
              stroke="#697998"/>
        <path fill="none" stroke-width="2.0"
              d="M -35.580463,-30.403919 C -46.605835,-29.908117 -63.887600,-45.702477 -64.383400,-56.727848"
              class="Transcoding AwsUtils::Path" stroke-opacity="1.0"
              stroke="#2ac869"/>
        <path fill="none" stroke-width="2.0"
              d="M -44.412106,58.124062 C -38.416893,50.736088 -18.342115,48.646950 -10.954143,54.642162"
              class="ApiKey User" stroke-opacity="1.0" stroke="#2a69c8"/>
        <path fill="none" stroke-width="1.0"
              d="M 8.586197,87.941307 C -1.981700,85.189545 -13.705903,65.210060 -10.954143,54.642162"
              class="Ability User" stroke-opacity="1.0" stroke="#2a69c8"/>
        <path fill="none" stroke-width="5.0"
              d="M -15.718624,89.676811 C -21.772659,81.716988 -18.913969,60.696198 -10.954143,54.642162"
              class="CancelSubscription User" stroke-opacity="1.0"
              stroke="#2a69c8"/>
        <path fill="none" stroke-width="1.0"
              d="M -15.718624,89.676811 C -12.424908,97.554466 -19.300819,114.311531 -27.178478,117.605247"
              class="CancelSubscription Subscription" stroke-opacity="1.0"
              stroke="#2a69c8"/>
        <path fill="none" stroke-width="5.0"
              d="M -33.237797,88.744415 C -35.601517,77.467232 -22.231323,57.005882 -10.954143,54.642162"
              class="ChangeSubscription User" stroke-opacity="1.0"
              stroke="#2a69c8"/>
        <path fill="none" stroke-width="1.0"
              d="M -33.237797,88.744415 C -40.670506,96.752541 -63.831753,97.615669 -71.839882,90.182953"
              class="ChangeSubscription Plan" stroke-opacity="1.0"
              stroke="#2a69c8"/>
        <path fill="none" stroke-width="1.0"
              d="M -33.237797,88.744415 C -26.253765,93.304718 -22.618176,110.621223 -27.178478,117.605247"
              class="ChangeSubscription Subscription" stroke-opacity="1.0"
              stroke="#2a69c8"/>
        <path fill="none" stroke-width="1.0"
              d="M -35.894730,25.406235 C -25.059427,26.265303 -10.095074,43.806858 -10.954143,54.642162"
              class="Notifications User" stroke-opacity="1.0" stroke="#2a69c8"/>
        <path fill="none" stroke-width="1.0"
              d="M -2.507822,18.152493 C 3.100848,27.139690 -1.966944,49.033493 -10.954143,54.642162"
              class="InvoicePaymentSucceeded User" stroke-opacity="1.0"
              stroke="#2a69c8"/>
        <path fill="none" stroke-width="1.0"
              d="M -2.317878,94.059151 C -11.928528,87.903000 -17.110287,64.252808 -10.954143,54.642162"
              class="OfflineVideoUpload User" stroke-opacity="1.0"
              stroke="#2a69c8"/>
        <path fill="none" stroke-width="2.0"
              d="M -40.669731,38.393448 C -31.476870,35.700073 -13.647518,45.449299 -10.954143,54.642162"
              class="UsageStat User" stroke-opacity="1.0" stroke="#2a69c8"/>
        <path fill="none" stroke-width="2.0"
              d="M -53.869064,90.258049 C -52.409256,74.551888 -26.660303,53.182354 -10.954143,54.642162"
              class="InvoiceCreated User" stroke-opacity="1.0" stroke="#2a69c8"/>
        <path fill="none" stroke-width="3.0"
              d="M -53.869064,90.258049 C -57.478245,93.837189 -68.260742,93.792137 -71.839882,90.182953"
              class="InvoiceCreated Plan" stroke-opacity="1.0" stroke="#2a69c8"/>
        <path fill="none" stroke-width="3.0"
              d="M -53.869064,90.258049 C -57.800953,87.500694 -59.562752,77.466843 -56.805401,73.534958"
              class="InvoiceCreated AccountUsage" stroke-opacity="1.0"
              stroke="#2a69c8"/>
        <path fill="none" stroke-width="1.0"
              d="M -50.424011,46.549694 C -40.911545,40.274212 -17.229622,45.129696 -10.954143,54.642162"
              class="InvoicePaymentFailed User" stroke-opacity="1.0"
              stroke="#2a69c8"/>
        <path fill="none" stroke-width="3.0"
              d="M -10.954143,54.642162 C -39.821812,33.884171 -51.986328,-40.554321 -31.228334,-69.421989"
              class="User Storage" stroke-opacity="1.0" stroke="#2a9898"/>
        <path fill="none" stroke-width="2.0"
              d="M -10.954143,54.642162 C -1.606393,70.479645 -11.340994,108.257500 -27.178478,117.605247"
              class="User Subscription" stroke-opacity="1.0" stroke="#2a69c8"/>
        <path fill="none" stroke-width="1.0"
              d="M -10.954143,54.642162 C -16.345835,67.590973 -43.856586,78.926651 -56.805401,73.534958"
              class="User AccountUsage" stroke-opacity="1.0" stroke="#2a69c8"/>
        <path fill="none" stroke-width="4.0"
              d="M -56.805401,73.534958 C -51.413708,60.586151 -23.902952,49.250473 -10.954143,54.642162"
              class="AccountUsage User" stroke-opacity="1.0" stroke="#2a69c8"/>
        <path fill="none" stroke-width="3.0"
              d="M -56.805401,73.534958 C -56.482700,79.871452 -65.503387,89.860252 -71.839882,90.182953"
              class="AccountUsage Plan" stroke-opacity="1.0" stroke="#2a69c8"/>
    </g>
    <g id="nodes">
        <circle fill-opacity="1.0" fill="#a82ac8" r="4.0" cx="32.360435"
                class="EncodingProfile" cy="86.872795" stroke="#000000"
                stroke-opacity="1.0" stroke-width="1.0"/>
        <circle fill-opacity="1.0" fill="#a82ac8" r="2.0" cx="43.94"
                class="EncodingProfilesPlatform" cy="106.94256" stroke="#000000"
                stroke-opacity="1.0" stroke-width="1.0"/>
        <circle fill-opacity="1.0" fill="#a82ac8" r="3.0" cx="52.563885"
                class="Platform" cy="95.18123" stroke="#000000"
                stroke-opacity="1.0" stroke-width="1.0"/>
        <circle fill-opacity="1.0" fill="#a8c82a" r="4.0" cx="52.596542"
                class="Player" cy="65.768005" stroke="#000000"
                stroke-opacity="1.0" stroke-width="1.0"/>
        <circle fill-opacity="1.0" fill="#a8c82a" r="8.0" cx="78.47898"
                class="Playlist" cy="29.807425" stroke="#000000"
                stroke-opacity="1.0" stroke-width="1.0"/>
        <circle fill-opacity="1.0" fill="#a8c82a" r="2.0" cx="100.49847"
                class="ImageUploader" cy="34.00308" stroke="#000000"
                stroke-opacity="1.0" stroke-width="1.0"/>
        <circle fill-opacity="1.0" fill="#a8c82a" r="4.0" cx="68.9569"
                class="PlayersPlaylists" cy="53.035942" stroke="#000000"
                stroke-opacity="1.0" stroke-width="1.0"/>
        <circle fill-opacity="1.0" fill="#c82a2a" r="1.0" cx="117.57541"
                class="SubtitleUploader" cy="-81.33926" stroke="#000000"
                stroke-opacity="1.0" stroke-width="1.0"/>
        <circle fill-opacity="1.0" fill="#c82a2a" r="2.0" cx="82.533844"
                class="CreateTranscodingsForVideo" cy="-32.94231"
                stroke="#000000" stroke-opacity="1.0" stroke-width="1.0"/>
        <circle fill-opacity="1.0" fill="#c82a2a" r="1.0" cx="80.71881"
                class="CreateThumbnail" cy="-67.92632" stroke="#000000"
                stroke-opacity="1.0" stroke-width="1.0"/>
        <circle fill-opacity="1.0" fill="#c82a2a" r="5.0" cx="66.793335"
                class="PlaylistRecord" cy="-11.400268" stroke="#000000"
                stroke-opacity="1.0" stroke-width="1.0"/>
        <circle fill-opacity="1.0" fill="#c82a2a" r="17.0" cx="51.784855"
                class="Video" cy="-61.64547" stroke="#000000"
                stroke-opacity="1.0" stroke-width="1.0"/>
        <circle fill-opacity="1.0" fill="#c82a2a" r="4.0" cx="69.69186"
                class="VideoUploader" cy="-114.53084" stroke="#000000"
                stroke-opacity="1.0" stroke-width="1.0"/>
        <circle fill-opacity="1.0" fill="#c82a2a" r="3.0" cx="50.383354"
                class="FileSizeValidator" cy="-117.108345" stroke="#000000"
                stroke-opacity="1.0" stroke-width="1.0"/>
        <circle fill-opacity="1.0" fill="#c82a2a" r="4.0" cx="79.25167"
                class="VideoDestination" cy="-95.88442" stroke="#000000"
                stroke-opacity="1.0" stroke-width="1.0"/>
        <circle fill-opacity="1.0" fill="#c82a2a" r="2.0" cx="94.594315"
                class="ThumbnailUploader" cy="-95.27957" stroke="#000000"
                stroke-opacity="1.0" stroke-width="1.0"/>
        <circle fill-opacity="1.0" fill="#2ac869" r="4.0" cx="-31.228334"
                class="Storage" cy="-69.42199" stroke="#000000"
                stroke-opacity="1.0" stroke-width="1.0"/>
        <circle fill-opacity="1.0" fill="#2ac869" r="2.0" cx="-64.3834"
                class="AwsUtils::Path" cy="-56.727848" stroke="#000000"
                stroke-opacity="1.0" stroke-width="1.0"/>
        <circle fill-opacity="1.0" fill="#2ac869" r="2.0" cx="3.9404933"
                class="PlaylistRecordStatusUpdater" cy="-51.280888"
                stroke="#000000" stroke-opacity="1.0" stroke-width="1.0"/>
        <circle fill-opacity="1.0" fill="#2ac869" r="4.0" cx="-82.253235"
                class="Codem::Job" cy="-59.52525" stroke="#000000"
                stroke-opacity="1.0" stroke-width="1.0"/>
        <circle fill-opacity="1.0" fill="#2ac869" r="3.0" cx="-45.87881"
                class="StartEncoding" cy="-55.360344" stroke="#000000"
                stroke-opacity="1.0" stroke-width="1.0"/>
        <circle fill-opacity="1.0" fill="#2ac869" r="2.0" cx="-65.06402"
                class="TrackEncodingProgress" cy="-41.533314" stroke="#000000"
                stroke-opacity="1.0" stroke-width="1.0"/>
        <circle fill-opacity="1.0" fill="#2ac869" r="1.0" cx="-96.77762"
                class="CancelEncoding" cy="-64.23689" stroke="#000000"
                stroke-opacity="1.0" stroke-width="1.0"/>
        <circle fill-opacity="1.0" fill="#2ac869" r="1.0" cx="-71.11419"
                class="UploadTranscodingFiles" cy="-88.2277" stroke="#000000"
                stroke-opacity="1.0" stroke-width="1.0"/>
        <circle fill-opacity="1.0" fill="#2ac869" r="5.0" cx="-63.85708"
                class="UploadTranscodingFiles::Worker" cy="-75.425674"
                stroke="#000000" stroke-opacity="1.0" stroke-width="1.0"/>
        <circle fill-opacity="1.0" fill="#2ac869" r="9.0" cx="-35.580463"
                class="Transcoding" cy="-30.40392" stroke="#000000"
                stroke-opacity="1.0" stroke-width="1.0"/>
        <circle fill-opacity="1.0" fill="#2a69c8" r="3.0" cx="-27.178478"
                class="Subscription" cy="117.60525" stroke="#000000"
                stroke-opacity="1.0" stroke-width="1.0"/>
        <circle fill-opacity="1.0" fill="#2a69c8" r="4.0" cx="-71.83988"
                class="Plan" cy="90.18295" stroke="#000000" stroke-opacity="1.0"
                stroke-width="1.0"/>
        <circle fill-opacity="1.0" fill="#2a69c8" r="1.0" cx="-44.412106"
                class="ApiKey" cy="58.12406" stroke="#000000"
                stroke-opacity="1.0" stroke-width="1.0"/>
        <circle fill-opacity="1.0" fill="#2a69c8" r="1.0" cx="8.586197"
                class="Ability" cy="87.94131" stroke="#000000"
                stroke-opacity="1.0" stroke-width="1.0"/>
        <circle fill-opacity="1.0" fill="#2a69c8" r="2.0" cx="-15.718624"
                class="CancelSubscription" cy="89.67681" stroke="#000000"
                stroke-opacity="1.0" stroke-width="1.0"/>
        <circle fill-opacity="1.0" fill="#2a69c8" r="3.0" cx="-33.237797"
                class="ChangeSubscription" cy="88.744415" stroke="#000000"
                stroke-opacity="1.0" stroke-width="1.0"/>
        <circle fill-opacity="1.0" fill="#2a69c8" r="1.0" cx="-35.89473"
                class="Notifications" cy="25.406235" stroke="#000000"
                stroke-opacity="1.0" stroke-width="1.0"/>
        <circle fill-opacity="1.0" fill="#2a69c8" r="1.0" cx="-2.5078216"
                class="InvoicePaymentSucceeded" cy="18.152493" stroke="#000000"
                stroke-opacity="1.0" stroke-width="1.0"/>
        <circle fill-opacity="1.0" fill="#2a69c8" r="1.0" cx="-2.3178775"
                class="OfflineVideoUpload" cy="94.05915" stroke="#000000"
                stroke-opacity="1.0" stroke-width="1.0"/>
        <circle fill-opacity="1.0" fill="#2a69c8" r="1.0" cx="-40.66973"
                class="UsageStat" cy="38.393448" stroke="#000000"
                stroke-opacity="1.0" stroke-width="1.0"/>
        <circle fill-opacity="1.0" fill="#2a69c8" r="3.0" cx="-53.869064"
                class="InvoiceCreated" cy="90.25805" stroke="#000000"
                stroke-opacity="1.0" stroke-width="1.0"/>
        <circle fill-opacity="1.0" fill="#2a69c8" r="1.0" cx="-50.42401"
                class="InvoicePaymentFailed" cy="46.549694" stroke="#000000"
                stroke-opacity="1.0" stroke-width="1.0"/>
        <circle fill-opacity="1.0" fill="#2a69c8" r="21.0" cx="-10.954143"
                class="User" cy="54.642162" stroke="#000000"
                stroke-opacity="1.0" stroke-width="1.0"/>
        <circle fill-opacity="1.0" fill="#2a69c8" r="4.0" cx="-56.8054"
                class="AccountUsage" cy="73.53496" stroke="#000000"
                stroke-opacity="1.0" stroke-width="1.0"/>
    </g>
</svg>