<?xml version="1.0" encoding="UTF-8" standalone="no"?>
<!DOCTYPE svg PUBLIC "-//W3C//DTD SVG 1.1//EN"
 "http://www.w3.org/Graphics/SVG/1.1/DTD/svg11.dtd">
<!-- Generated by graphviz version 2.36.0 (20140111.2315)
 -->
<!-- Title: G Pages: 1 -->
<svg width="162pt" height="220pt"
 viewBox="0.00 0.00 162.00 220.00" xmlns="http://www.w3.org/2000/svg" xmlns:xlink="http://www.w3.org/1999/xlink">
<g id="graph0" class="graph" transform="scale(1 1) rotate(0) translate(4 216)">
<title>G</title>
<polygon fill="white" stroke="none" points="-4,4 -4,-216 158,-216 158,4 -4,4"/>
<!-- ContactsController -->
<g id="node1" class="node"><title>ContactsController</title>
<ellipse fill="none" stroke="black" cx="77" cy="-194" rx="77.0154" ry="18"/>
<text text-anchor="middle" x="77" y="-190.3" font-family="Times,serif" font-size="14.00">ContactsController</text>
</g>
<!-- Contact -->
<g id="node2" class="node"><title>Contact</title>
<ellipse fill="none" stroke="black" cx="77" cy="-106" rx="38.0212" ry="18"/>
<text text-anchor="middle" x="77" y="-102.3" font-family="Times,serif" font-size="14.00">Contact</text>
</g>
<!-- ContactsController&#45;&gt;Contact -->
<g id="edge1" class="edge"><title>ContactsController&#45;&gt;Contact</title>
<path fill="none" stroke="black" d="M77,-175.597C77,-163.746 77,-147.817 77,-134.292"/>
<polygon fill="black" stroke="black" points="80.5001,-134.084 77,-124.084 73.5001,-134.084 80.5001,-134.084"/>
<text text-anchor="middle" x="94" y="-146.3" font-family="Times,serif" font-size="14.00">valid?</text>
</g>
<!-- EmailValidator -->
<g id="node3" class="node"><title>EmailValidator</title>
<ellipse fill="none" stroke="black" cx="77" cy="-18" rx="65.4659" ry="18"/>
<text text-anchor="middle" x="77" y="-14.3" font-family="Times,serif" font-size="14.00">EmailValidator</text>
</g>
<!-- Contact&#45;&gt;EmailValidator -->
<g id="edge2" class="edge"><title>Contact&#45;&gt;EmailValidator</title>
<path fill="none" stroke="black" d="M77,-87.5966C77,-75.7459 77,-59.8169 77,-46.2917"/>
<polygon fill="black" stroke="black" points="80.5001,-46.084 77,-36.084 73.5001,-46.084 80.5001,-46.084"/>
<text text-anchor="middle" x="98.5" y="-58.3" font-family="Times,serif" font-size="14.00">validate</text>
</g>
</g>
</svg>
